<svg xmlns="http://www.w3.org/2000/svg" class="icon dark-icon" viewBox="0 0 1024 1024" fill="currentColor" aria-label="dark icon" style="display: block;"><path d="M524.8 938.667h-4.267a439.893 439.893 0 0 1-313.173-134.4 446.293 446.293 0 0 1-11.093-597.334A432.213 432.213 0 0 1 366.933 90.027a42.667 42.667 0 0 1 45.227 9.386 42.667 42.667 0 0 1 10.24 42.667 358.4 358.4 0 0 0 82.773 375.893 361.387 361.387 0 0 0 376.747 82.774 42.667 42.667 0 0 1 54.187 55.04 433.493 433.493 0 0 1-99.84 154.88 438.613 438.613 0 0 1-311.467 128z"></path></svg>
