<svg xmlns="http://www.w3.org/2000/svg" class="icon light-icon" viewBox="0 0 1024 1024" fill="currentColor" aria-label="light icon" style="display: block;"><path d="M952 552h-80a40 40 0 0 1 0-80h80a40 40 0 0 1 0 80zM801.88 280.08a41 41 0 0 1-57.96-57.96l57.96-58a41.04 41.04 0 0 1 58 58l-58 57.96zM512 752a240 240 0 1 1 0-480 240 240 0 0 1 0 480zm0-560a40 40 0 0 1-40-40V72a40 40 0 0 1 80 0v80a40 40 0 0 1-40 40zm-289.88 88.08-58-57.96a41.04 41.04 0 0 1 58-58l57.96 58a41 41 0 0 1-57.96 57.96zM192 512a40 40 0 0 1-40 40H72a40 40 0 0 1 0-80h80a40 40 0 0 1 40 40zm30.12 231.92a41 41 0 0 1 57.96 57.96l-57.96 58a41.04 41.04 0 0 1-58-58l58-57.96zM512 832a40 40 0 0 1 40 40v80a40 40 0 0 1-80 0v-80a40 40 0 0 1 40-40zm289.88-88.08 58 57.96a41.04 41.04 0 0 1-58 58l-57.96-58a41 41 0 0 1 57.96-57.96z"></path></svg>
